# xmcd
#
# Track frame offsets:
#  150
#  12502
#  31220
#  42165
#  60449
#  70527
#  91654
#  111685
#  130228
#  142547
#  156554
#  168227
#  189743
#  207495
#  223362
#  238510
#  254794
#  272334
#  291544
#  311178
#
# Disc length: 4328 seconds
#
# Revision: 0
# Processed by: cddbd v1.5.1PL2 Copyright (c) Steve Scherf et al.
# Submitted via: Collectorz.com_Music_Collector 6.9
#
DISCID=3210e614
DTITLE=Various Artist - Love Lifted Me
DYEAR=1900
DGENRE=Christian Pop
TTITLE0=Judy Collins - Morning Has Broken
TTITLE1=John Denver - Tenderly Calling (Softly and Tenderly)
TTITLE2=Raven, Eddy - Love Lifted Me
TTITLE3=Brown, T. Graham - The Old Rugged Cross
TTITLE4=Frankie Laine - I Believe
TTITLE5=Glen Campbell - Bridge Over Troubled Waters
TTITLE6=Williams, Don - You've Got A Friend
TTITLE7=Lee, Brenda - Precious Memories
TTITLE8=Lee Greenwood - You'll Never Walk Alone
TTITLE9=Kingston Trio, The - Where Have All The Flowers Gone
TTITLE10=Jordanaires, The - He's Got the Whole World
TTITLE11=Rabon, Marty - Butterfly Kisses
TTITLE12=Kenny Rogers - Let It Be Me
TTITLE13=Dunn, Holly - Daddy's Hands
TTITLE14=Clark, Roy - Yesterday, When I Was Young
TTITLE15=Kershaw. Sammy - I Got A Name
TTITLE16=Williams, Don - I Believe In You
TTITLE17=John Denver - Rocky Mountain High
TTITLE18=Lee, Brenda - What A Friend We Have In Jesus
TTITLE19=Jordanaires, The - Go Tell It On The Mountain
EXTD=
EXTT0=
EXTT1=
EXTT2=
EXTT3=
EXTT4=
EXTT5=
EXTT6=
EXTT7=
EXTT8=
EXTT9=
EXTT10=
EXTT11=
EXTT12=
EXTT13=
EXTT14=
EXTT15=
EXTT16=
EXTT17=
EXTT18=
EXTT19=
PLAYORDER=
